# xmcd
#
# Track frame offsets: 
#        225
#        16040
#        55706
#        70632
#        123115
#        143216
#        156172
#        169010
#
# Disc length: 2422 seconds
#
# Revision: 1
# Processed by: cddbd v1.5.2PL0 Copyright (c) Steve Scherf et al.
# Submitted via: ExactAudioCopy v0.99pb4
#
DISCID=5b097308
DTITLE=Jimi Hendrix - The Best Of Jimi Hendrix
DYEAR=2002
DGENRE=Blues
TTITLE0=Soul Four
TTITLE1=Voices
TTITLE2=Keep A Knockin´
TTITLE3=Red House
TTITLE4=Under The Table
TTITLE5=Long Tall Sally
TTITLE6=Lucille
TTITLE7=Belle Stars
EXTD=¨The Best Of Jimi Hendrix¨ 
EXTT0=
EXTT1=
EXTT2=
EXTT3=
EXTT4=
EXTT5=
EXTT6=
EXTT7=
PLAYORDER=
